<?xml version="1.0" encoding="utf-8"?>
<!-- Generator: Adobe Illustrator 26.0.3, SVG Export Plug-In . SVG Version: 6.00 Build 0)  -->
<svg version="1.1" id="Layer_1" xmlns="http://www.w3.org/2000/svg" xmlns:xlink="http://www.w3.org/1999/xlink" x="0px" y="0px"
	 viewBox="0 0 300 450" style="enable-background:new 0 0 300 450;" xml:space="preserve">
<style type="text/css">
	.st0{fill:#FFFFFF;}
	.st1{fill:#020202;}
</style>
<g id="Group_478" transform="translate(-47.061 -626.246)">
	<path class="st0" d="M221,945.6c-3-3.8-10.4-26.4-15.4-45.1c-4.3-16.1-13-25.5-25.2-28.7c7.6-8.9,12-22.7,6.1-44.4
		c-8.2-30.3-29.1-45-54.4-38.2l-57.6,15.3l-1.2,0.3l47.7,176.5l38.5-10.3c0,0-15.6-57.8-18.4-68l1.9-0.5c5.9-1.5,10.2-1.5,13.1,0.2
		c5.1,2.9,7.5,11.8,10.2,22l2.1,8.1c2.5,9.8,5.2,20,11.8,28.6l2.6,3.4l44.1-11.7L221,945.6z M142.5,869L142.5,869
		c0,0-4.9,1.3-9.8,2.6c-2.9-10.6-9.5-35.1-12.4-45.8c4.8-1.2,9.8-2.6,9.8-2.6c4.7-1.2,12.5-3.3,18.2,17.8
		C149.5,845.2,154.4,865.8,142.5,869z"/>
	<path class="st0" d="M314.7,803c-12.3-45.7-39.8-48.7-60.8-43.1L202,773.6l-6.2,1.6l47.7,176.6l39.4-10.5c0,0-15.4-56.7-18.1-66.9
		c6.7-1.8,16.9-4.5,16.9-4.5C312.4,861.8,324.2,838,314.7,803z M270,838.2c0,0-7.6,2-14,3.7c-2.8-10.4-9.5-35.3-12.3-45.7
		c5.7-1.5,11.9-3.2,11.9-3.2c6.8-1.8,14.6-1.8,20.7,20.9C279.2,824.8,276.1,836.5,270,838.2z"/>
	<path class="st0" d="M226.6,1028.3h-9.8v7.1h8.2c6.5,0,10-0.9,10-3.4C235.1,1029.5,231.5,1028.3,226.6,1028.3z M226.6,1028.3h-9.8
		v7.1h8.2c6.5,0,10-0.9,10-3.4C235.1,1029.5,231.5,1028.3,226.6,1028.3z M226.6,1028.3h-9.8v7.1h8.2c6.5,0,10-0.9,10-3.4
		C235.1,1029.5,231.5,1028.3,226.6,1028.3z M295.7,1028.3h-7.4v6h8.7c4.2,0,7.2-1.1,7.2-3.1C304.3,1028.3,300.1,1028.3,295.7,1028.3
		z M295,1040.7l-6.7,0v6.6h9.1c5.2,0,9.1-0.6,9.1-3.3C306.6,1040.9,301.7,1040.7,295,1040.7z M295,1040.7l-6.7,0v6.6h9.1
		c5.2,0,9.1-0.6,9.1-3.3C306.6,1040.9,301.7,1040.7,295,1040.7z M295.7,1028.3h-7.4v6h8.7c4.2,0,7.2-1.1,7.2-3.1
		C304.3,1028.3,300.1,1028.3,295.7,1028.3z M226.6,1028.3h-9.8v7.1h8.2c6.5,0,10-0.9,10-3.4C235.1,1029.5,231.5,1028.3,226.6,1028.3
		z M226.6,1028.3h-9.8v7.1h8.2c6.5,0,10-0.9,10-3.4C235.1,1029.5,231.5,1028.3,226.6,1028.3z M295.7,1028.3h-7.4v6h8.7
		c4.2,0,7.2-1.1,7.2-3.1C304.3,1028.3,300.1,1028.3,295.7,1028.3z M295,1040.7l-6.7,0v6.6h9.1c5.2,0,9.1-0.6,9.1-3.3
		C306.6,1040.9,301.7,1040.7,295,1040.7z M295,1040.7l-6.7,0v6.6h9.1c5.2,0,9.1-0.6,9.1-3.3C306.6,1040.9,301.7,1040.7,295,1040.7z
		 M304.3,1031.1c0-2.8-4.1-2.9-8.5-2.9h-7.4v6h8.7C301.2,1034.2,304.3,1033.1,304.3,1031.1z M226.6,1028.3h-9.8v7.1h8.2
		c6.5,0,10-0.9,10-3.4C235.1,1029.5,231.5,1028.3,226.6,1028.3z M326,735.7v268.4H66V735.7H326z M66.1,719.7v-73H326v73H66.1z
		 M223.3,1043.1h-6.4v12.4h-21v-35.6h30.2c21.3,0,28.3,3.3,28.3,10.2c0,4.1-3.3,7.5-10.8,8.7c6.8,1.4,10.9,2.2,10.9,9.4
		c0,4.6-0.3,6.2,2.2,6.2v1.1h-21.3c-0.8-2-1.2-4.1-1.1-6.2C234.5,1044.6,233,1043.1,223.3,1043.1z M128.6,1030.4
		c0-7.6,11.7-11.4,27.8-11.4c17.8,0,25.9,5,27.4,11.3h-19.9c-0.5-1.3-1.7-2.2-3-2.4c-1.8-0.5-3.6-0.7-5.4-0.7
		c-4.6,0-6.7,0.8-6.7,2.1c0,5.3,36.8,2,36.8,14.9c0,8.2-12.4,12.3-30,12.3c-16.9,0-27.9-5.5-28.3-11.9h20.1c0.7,1.4,2,2.5,3.5,2.8
		c1.9,0.6,3.9,0.9,6,0.9c5.2,0,8.7-0.9,8.7-2.6C165.4,1040.3,128.6,1044,128.6,1030.4z M113.4,1033.4v8.3H87v5.6h32.4v8.3H66v-35.6
		h52.2v8.3H87v5.1H113.4z M298.6,1055.6h-31.2v-35.6H298c14.4,0,25.9,1.9,25.9,9c0,3.7-4.3,6.4-8.4,7.7c6.9,1,10.6,4.3,10.6,8.2
		C326.1,1052.7,315.2,1055.6,298.6,1055.6z M316.6,665.3c-0.6-1.1-1.5-2-2.6-2.6c-2.7-1.5-6.1-1.1-8.4,0.9c-1.2,1.4-2.2,3-2.6,4.8
		c-0.6,2.2-0.9,4.5-1,6.8c-0.1,2.5-0.2,5.1-0.2,7.7c0,3.9,0.1,7.3,0.3,10c0.1,2.3,0.5,4.6,1.3,6.8c0.5,1.6,1.5,2.9,2.9,3.8
		c1.6,0.9,3.4,1.3,5.2,1.2c0.6,0,1.2,0,1.8-0.1c0.7-0.1,1.3-0.2,2-0.4c0.7-0.2,1.3-0.3,1.9-0.5c0.6-0.1,1-0.3,1.4-0.4v-21h-8v6.4
		h2.8v9.2c-0.4,0.2-0.8,0.4-1.2,0.6c-0.4,0.1-0.9,0.2-1.3,0.2c-0.7,0-1.3-0.2-1.8-0.6c-0.6-0.6-1-1.4-1.1-2.2
		c-0.3-1.5-0.5-3.1-0.6-4.6c-0.1-2-0.2-4.6-0.2-7.9c0-2,0-3.9,0-5.8c0-1.6,0.1-3.3,0.4-4.9c0.1-1.2,0.5-2.3,1-3.4
		c0.3-0.8,1-1.2,1.9-1.2c0.6,0,1.2,0.2,1.6,0.6c0.4,0.5,0.8,1,1,1.6c0.2,0.8,0.4,1.5,0.4,2.3c0.1,0.9,0.1,1.8,0.1,2.8l5.1,0
		c0.1-1.9-0.1-3.9-0.4-5.8C317.9,668,317.3,666.6,316.6,665.3z M295,1040.7l-6.7,0v6.6h9.1c5.2,0,9.1-0.6,9.1-3.3
		C306.6,1040.9,301.7,1040.7,295,1040.7z M304.3,1031.1c0-2.8-4.1-2.9-8.5-2.9h-7.4v6h8.7C301.2,1034.2,304.3,1033.1,304.3,1031.1z
		 M292.9,691.2L292.9,691.2l-6.6-28.7h-7V704h4.8v-30.3h0.1l6.8,30.3h6.8v-41.5h-4.8V691.2z M269.6,704h5.2v-41.5h-5.2V704z
		 M264,667.9c-0.4-1.5-1.3-2.9-2.5-4c-1.2-1-2.6-1.4-4.1-1.4h-8.6V704h8.4c1.3,0.1,2.6-0.3,3.7-1.1c1-0.8,1.8-1.8,2.4-2.9
		c0.7-1.3,1.1-2.7,1.4-4.1c0.3-1.5,0.5-3.1,0.6-4.6c0.1-1.6,0.2-3.1,0.2-4.5V683c0-3.2-0.1-6.1-0.3-8.7
		C265,672.2,264.6,670,264,667.9z M239.5,691.2L239.5,691.2l-6.7-28.7h-7V704h4.8v-30.3h0.1l6.8,30.3h6.8v-41.5h-4.8V691.2z
		 M226.6,1028.3h-9.8v7.1h8.2c6.5,0,10-0.9,10-3.4C235.1,1029.5,231.5,1028.3,226.6,1028.3z M213.8,685.5h7.7v-6.4h-7.7v-10.2h8.3
		v-6.4h-13.5V704l13.8,0v-6.4h-8.6V685.5z M204,665.9c-0.5-1-1.1-1.9-2-2.5c-0.9-0.6-2-0.9-3-0.8h-9.3V704h5.2v-16.9h3.8
		c1.3,0.1,2.6-0.4,3.6-1.2c0.9-0.8,1.7-1.9,2.1-3.1c0.5-1.3,0.8-2.6,0.9-4c0.2-1.3,0.2-2.6,0.2-3.9c0-1.7-0.1-3.4-0.4-5.1
		C205,668.5,204.6,667.1,204,665.9z M175.5,665.3c-0.6-1.1-1.5-2-2.6-2.6c-1-0.6-2.2-0.9-3.4-0.9c-1.8-0.1-3.6,0.6-5,1.8
		c-1.2,1.4-2.1,3-2.6,4.8c-0.6,2.2-1,4.5-1,6.8c-0.1,2.5-0.2,5.1-0.2,7.7c0,3.9,0.1,7.3,0.3,10c0.1,2.3,0.5,4.6,1.3,6.8
		c0.5,1.6,1.5,2.9,2.9,3.8c1.6,0.9,3.4,1.3,5.2,1.2c0.6,0,1.2,0,1.8-0.1c0.7-0.1,1.3-0.2,2-0.4c0.7-0.2,1.3-0.3,1.9-0.5
		c0.6-0.1,1.1-0.3,1.4-0.4v-21h-8v6.4h2.8v9.2c-0.4,0.2-0.8,0.4-1.2,0.6c-0.4,0.1-0.9,0.2-1.3,0.2c-0.7,0-1.3-0.2-1.8-0.6
		c-0.6-0.6-1-1.4-1.1-2.2c-0.3-1.5-0.5-3.1-0.6-4.6c-0.1-2-0.2-4.6-0.2-7.9c0-2,0-3.9,0.1-5.8c0-1.6,0.1-3.3,0.4-4.9
		c0.1-1.2,0.5-2.3,1-3.4c0.3-0.8,1-1.2,1.9-1.2c0.6,0,1.2,0.2,1.6,0.6c0.4,0.5,0.8,1,0.9,1.6c0.2,0.8,0.4,1.5,0.4,2.3
		c0.1,0.9,0.1,1.8,0.1,2.8l5.2,0c0.1-1.9,0-3.9-0.4-5.8C176.8,668,176.3,666.6,175.5,665.3z M151.8,691.2L151.8,691.2l-6.7-28.7h-7
		V704h4.8v-30.3h0.1l6.7,30.3h6.8v-41.5h-4.8V691.2z M128.5,704h5.2v-41.5h-5.2V704z M109.4,669.4h5.8V704h5.2v-34.6h5.8v-6.9
		l-16.7,0V669.4z M97.4,662.5L90.6,704h5.1l1.4-9.2h7.1l1.4,9.2h5.5l-6.7-41.5H97.4z M88.7,698.2c0-1.3-0.1-2.5-0.1-3.7s0-2.1,0-2.8
		c0-1.5-0.1-3-0.5-4.4c-0.3-0.9-0.7-1.7-1.3-2.4c-0.4-0.5-0.9-0.8-1.5-1c-0.5-0.2-0.9-0.3-1.2-0.3v-0.1c1.7-0.5,3-1.8,3.5-3.4
		c0.8-2.2,1.1-4.4,1-6.7c0.2-2.8-0.4-5.6-1.6-8.1c-0.8-1.7-2.4-2.7-4.2-2.8h-9.6V704h5.2l0-17.2h1.4c0.8,0,1.6,0.2,2.2,0.8
		c0.5,0.5,0.9,1.2,1.1,2c0.2,1,0.4,1.9,0.4,2.9c0,1.1,0,2.3,0,3.5v4.1c0,1.3,0.2,2.7,0.5,4h5.1c-0.2-0.7-0.3-1.5-0.3-2.2
		C88.8,700.7,88.7,699.5,88.7,698.2z M226.6,1028.3h-9.8v7.1h8.2c6.5,0,10-0.9,10-3.4C235.1,1029.5,231.5,1028.3,226.6,1028.3z
		 M295.7,1028.3h-7.4v6h8.7c4.2,0,7.2-1.1,7.2-3.1C304.3,1028.3,300.1,1028.3,295.7,1028.3z M295,1040.7l-6.7,0v6.6h9.1
		c5.2,0,9.1-0.6,9.1-3.3C306.6,1040.9,301.7,1040.7,295,1040.7z M295,1040.7l-6.7,0v6.6h9.1c5.2,0,9.1-0.6,9.1-3.3
		C306.6,1040.9,301.7,1040.7,295,1040.7z M295.7,1028.3h-7.4v6h8.7c4.2,0,7.2-1.1,7.2-3.1C304.3,1028.3,300.1,1028.3,295.7,1028.3z
		 M226.6,1028.3h-9.8v7.1h8.2c6.5,0,10-0.9,10-3.4C235.1,1029.5,231.5,1028.3,226.6,1028.3z M226.6,1028.3h-9.8v7.1h8.2
		c6.5,0,10-0.9,10-3.4C235.1,1029.5,231.5,1028.3,226.6,1028.3z M295.7,1028.3h-7.4v6h8.7c4.2,0,7.2-1.1,7.2-3.1
		C304.3,1028.3,300.1,1028.3,295.7,1028.3z M295,1040.7l-6.7,0v6.6h9.1c5.2,0,9.1-0.6,9.1-3.3C306.6,1040.9,301.7,1040.7,295,1040.7
		z M295,1040.7l-6.7,0v6.6h9.1c5.2,0,9.1-0.6,9.1-3.3C306.6,1040.9,301.7,1040.7,295,1040.7z M295.7,1028.3h-7.4v6h8.7
		c4.2,0,7.2-1.1,7.2-3.1C304.3,1028.3,300.1,1028.3,295.7,1028.3z M226.6,1028.3h-9.8v7.1h8.2c6.5,0,10-0.9,10-3.4
		C235.1,1029.5,231.5,1028.3,226.6,1028.3z"/>
	<g id="Group_477" transform="translate(49.146 628.558)">
		<g id="Group_473">
			<path class="st1" d="M171.9,317c-3-3.8-10.4-26.4-15.4-45.1c-4.3-16.1-13-25.5-25.2-28.7c7.6-8.9,12-22.7,6.1-44.4
				c-8.2-30.3-29.1-45-54.4-38.2l-57.6,15.3l-1.2,0.3l47.7,176.5l38.5-10.3c0,0-15.6-57.8-18.4-68L94,274c5.9-1.5,10.2-1.5,13.1,0.2
				c5.1,2.9,7.5,11.8,10.2,22l2.1,8.1c2.5,9.8,5.2,20,11.8,28.6l2.6,3.4l44.1-11.7L171.9,317z M93.4,240.4L93.4,240.4
				c0,0-4.9,1.3-9.8,2.6c-2.9-10.6-9.5-35.1-12.4-45.8c4.8-1.2,9.8-2.6,9.8-2.6c4.7-1.2,12.5-3.3,18.2,17.8
				C100.3,216.6,105.3,237.3,93.4,240.4z"/>
			<path class="st1" d="M265.5,174.4c-12.3-45.7-39.8-48.7-60.8-43.1L152.8,145l-6.2,1.6l47.7,176.6l39.4-10.5
				c0,0-15.4-56.7-18.1-66.9c6.7-1.8,16.9-4.5,16.9-4.5C263.3,233.3,275,209.4,265.5,174.4z M220.8,209.6c0,0-7.6,2-14,3.7
				c-2.8-10.4-9.5-35.3-12.3-45.7c5.7-1.5,11.9-3.2,11.9-3.2c6.8-1.8,14.6-1.8,20.7,20.9C230,196.2,227,208,220.8,209.6z"/>
			<path class="st1" d="M177.5,399.7h-9.8v7.1h8.2c6.5,0,10-1,10-3.4C185.9,400.9,182.4,399.7,177.5,399.7z M177.5,399.7h-9.8v7.1
				h8.2c6.5,0,10-1,10-3.4C185.9,400.9,182.4,399.7,177.5,399.7z M177.5,399.7h-9.8v7.1h8.2c6.5,0,10-1,10-3.4
				C185.9,400.9,182.4,399.7,177.5,399.7z M246.6,399.7h-7.4v6h8.7c4.2,0,7.2-1.1,7.2-3.1C255.1,399.8,251,399.7,246.6,399.7z
				 M245.8,412.1l-6.7,0v6.6h9.1c5.2,0,9.1-0.6,9.1-3.3C257.4,412.3,252.5,412.1,245.8,412.1z M245.8,412.1l-6.7,0v6.6h9.1
				c5.2,0,9.1-0.6,9.1-3.3C257.4,412.3,252.5,412.1,245.8,412.1z M246.6,399.7h-7.4v6h8.7c4.2,0,7.2-1.1,7.2-3.1
				C255.1,399.8,251,399.7,246.6,399.7z M177.5,399.7h-9.8v7.1h8.2c6.5,0,10-1,10-3.4C185.9,400.9,182.4,399.7,177.5,399.7z
				 M177.5,399.7h-9.8v7.1h8.2c6.5,0,10-1,10-3.4C185.9,400.9,182.4,399.7,177.5,399.7z M246.6,399.7h-7.4v6h8.7
				c4.2,0,7.2-1.1,7.2-3.1C255.1,399.8,251,399.7,246.6,399.7z M245.8,412.1l-6.7,0v6.6h9.1c5.2,0,9.1-0.6,9.1-3.3
				C257.4,412.3,252.5,412.1,245.8,412.1z M245.8,412.1l-6.7,0v6.6h9.1c5.2,0,9.1-0.6,9.1-3.3C257.4,412.3,252.5,412.1,245.8,412.1z
				 M255.1,402.5c0-2.8-4.1-2.9-8.5-2.9h-7.4v6h8.7C252.1,405.7,255.1,404.6,255.1,402.5z M177.5,399.7h-9.8v7.1h8.2
				c6.5,0,10-1,10-3.4C185.9,400.9,182.4,399.7,177.5,399.7z M2.3,2.5v440.4h291.3V2.5H2.3z M16.9,18.2h259.9v73H16.9V18.2z
				 M16.8,107.1h260v268.4h-260V107.1z M70.3,427H16.9v-35.6h52.2v8.3H37.8v5.1h26.4v8.3H37.8v5.6h32.4V427z M106.3,428
				c-16.9,0-27.9-5.5-28.3-11.9h20.1c0.7,1.4,2,2.5,3.5,2.8c1.9,0.6,3.9,0.9,6,0.9c5.2,0,8.7-0.9,8.7-2.6c0-5.4-36.8-1.7-36.8-15.3
				c0-7.6,11.7-11.4,27.8-11.4c17.8,0,25.9,5,27.4,11.3h-19.9c-0.5-1.3-1.7-2.2-3-2.4c-1.8-0.5-3.6-0.7-5.4-0.7
				c-4.6,0-6.7,0.8-6.7,2.1c0,5.3,36.8,2,36.8,14.9C136.3,423.9,123.9,428,106.3,428z M207.6,427h-21.3c-0.8-2-1.2-4.1-1.1-6.2
				c0-4.7-1.4-6.2-11.2-6.2h-6.4V427h-21v-35.6H177c21.3,0,28.3,3.3,28.3,10.2c0,4.1-3.3,7.5-10.8,8.7c6.8,1.4,10.9,2.2,10.9,9.4
				c0,4.6-0.3,6.2,2.2,6.2V427z M249.4,427h-31.2v-35.6h30.6c14.4,0,25.9,1.9,25.9,9c0,3.7-4.3,6.4-8.4,7.7c6.9,1,10.6,4.3,10.6,8.2
				C277,424.2,266.1,427,249.4,427z M267.4,36.8c-0.6-1.1-1.5-2-2.6-2.6c-2.7-1.5-6.1-1.1-8.4,0.9c-1.2,1.4-2.2,3-2.6,4.8
				c-0.6,2.2-0.9,4.5-1,6.8c-0.1,2.5-0.2,5.1-0.2,7.7c0,3.9,0.1,7.3,0.3,10c0.1,2.3,0.5,4.6,1.3,6.8c0.5,1.6,1.5,2.9,2.9,3.8
				c1.6,0.9,3.4,1.3,5.2,1.2c0.6,0,1.2,0,1.8-0.1c0.7-0.1,1.3-0.2,2-0.4c0.7-0.2,1.3-0.3,1.9-0.5c0.6-0.1,1-0.3,1.4-0.4v-21h-8v6.4
				h2.8v9.2c-0.4,0.2-0.8,0.4-1.2,0.6c-0.4,0.1-0.9,0.2-1.3,0.2c-0.7,0-1.3-0.2-1.8-0.6c-0.6-0.6-1-1.4-1.1-2.2
				c-0.3-1.5-0.5-3.1-0.6-4.6c-0.1-2-0.2-4.6-0.2-7.9c0-2,0-3.9,0-5.8c0-1.6,0.1-3.3,0.4-4.9c0.1-1.2,0.5-2.3,1-3.4
				c0.3-0.8,1-1.2,1.9-1.2c0.6,0,1.2,0.2,1.6,0.6c0.4,0.5,0.8,1,1,1.6c0.2,0.8,0.4,1.5,0.4,2.3c0.1,0.9,0.1,1.8,0.1,2.8l5.1,0
				c0.1-1.9-0.1-3.9-0.4-5.8C268.7,39.5,268.2,38,267.4,36.8z M245.8,412.1l-6.7,0v6.6h9.1c5.2,0,9.1-0.6,9.1-3.3
				C257.4,412.3,252.5,412.1,245.8,412.1z M255.1,402.5c0-2.8-4.1-2.9-8.5-2.9h-7.4v6h8.7C252.1,405.7,255.1,404.6,255.1,402.5z
				 M243.7,62.7L243.7,62.7L237.1,34h-7v41.5h4.8V45.1h0.1l6.8,30.3h6.8V34h-4.8V62.7z M220.5,75.4h5.2V34h-5.2V75.4z M214.8,39.4
				c-0.4-1.5-1.3-2.9-2.5-4c-1.2-1-2.6-1.4-4.1-1.4h-8.6v41.5h8.4c1.3,0.1,2.6-0.3,3.7-1.1c1-0.8,1.8-1.8,2.4-2.9
				c0.7-1.3,1.1-2.7,1.4-4.1c0.3-1.5,0.5-3.1,0.6-4.6c0.1-1.6,0.2-3.1,0.2-4.5v-3.8c0-3.2-0.1-6.1-0.3-8.7
				C215.9,43.6,215.5,41.5,214.8,39.4z M190.3,62.7L190.3,62.7L183.7,34h-7v41.5h4.8V45.1h0.1l6.8,30.3h6.8V34h-4.8V62.7z
				 M177.5,399.7h-9.8v7.1h8.2c6.5,0,10-1,10-3.4C185.9,400.9,182.4,399.7,177.5,399.7z M164.6,56.9h7.7v-6.4h-7.7V40.4h8.3V34
				h-13.5v41.5l13.8,0v-6.4h-8.6V56.9z M154.8,37.3c-0.5-1-1.1-1.9-2-2.5c-0.9-0.6-2-0.9-3-0.8h-9.3v41.5h5.2V58.6h3.8
				c1.3,0.1,2.6-0.4,3.6-1.2c0.9-0.8,1.7-1.9,2.1-3.1c0.5-1.3,0.8-2.6,0.9-4c0.2-1.3,0.2-2.6,0.2-3.9c0-1.7-0.1-3.4-0.4-5.1
				C155.8,39.9,155.4,38.6,154.8,37.3z M126.3,36.8c-0.6-1.1-1.5-2-2.6-2.6c-1-0.6-2.2-0.9-3.4-0.9c-1.8-0.1-3.6,0.6-5,1.8
				c-1.2,1.4-2.1,3-2.6,4.8c-0.6,2.2-1,4.5-1,6.8c-0.1,2.5-0.2,5.1-0.2,7.7c0,3.9,0.1,7.3,0.3,10c0.1,2.3,0.5,4.6,1.3,6.8
				c0.5,1.6,1.5,2.9,2.9,3.8c1.6,0.9,3.4,1.3,5.2,1.2c0.6,0,1.2,0,1.8-0.1c0.7-0.1,1.3-0.2,2-0.4c0.7-0.2,1.3-0.3,1.9-0.5
				c0.6-0.1,1.1-0.3,1.4-0.4v-21h-8v6.4h2.8v9.2c-0.4,0.2-0.8,0.4-1.2,0.6c-0.4,0.1-0.9,0.2-1.3,0.2c-0.7,0-1.3-0.2-1.8-0.6
				c-0.6-0.6-1-1.4-1.1-2.2c-0.3-1.5-0.5-3.1-0.6-4.6c-0.1-2-0.2-4.6-0.2-7.9c0-2,0-3.9,0.1-5.8c0-1.6,0.1-3.3,0.4-4.9
				c0.1-1.2,0.5-2.3,1-3.4c0.3-0.8,1-1.2,1.9-1.2c0.6,0,1.2,0.2,1.6,0.6c0.4,0.5,0.8,1,0.9,1.6c0.2,0.8,0.4,1.5,0.4,2.3
				c0.1,0.9,0.1,1.8,0.1,2.8l5.2,0c0.1-1.9,0-3.9-0.4-5.8C127.6,39.5,127.1,38,126.3,36.8z M102.6,62.7L102.6,62.7L95.9,34h-7v41.5
				h4.8V45.1h0.1l6.7,30.3h6.8V34h-4.8V62.7z M79.4,75.4h5.2V34h-5.2V75.4z M60.3,40.9H66v34.6h5.2V40.9H77V34l-16.7,0V40.9z
				 M48.3,34l-6.9,41.5h5.1l1.4-9.2H55l1.4,9.2h5.5L55.1,34H48.3z M39.5,69.7c0-1.3-0.1-2.5-0.1-3.7s0-2.1,0-2.8
				c0-1.5-0.1-3-0.5-4.4c-0.3-0.9-0.7-1.7-1.3-2.4c-0.4-0.5-0.9-0.8-1.5-1c-0.5-0.2-0.9-0.3-1.2-0.3V55c1.7-0.5,3-1.8,3.5-3.4
				c0.8-2.2,1.1-4.4,1-6.7c0.2-2.8-0.4-5.6-1.6-8.1c-0.8-1.7-2.4-2.7-4.2-2.8h-9.6v41.5h5.2l0-17.2h1.4c0.8,0,1.6,0.2,2.2,0.8
				c0.5,0.5,0.9,1.2,1.1,2c0.2,1,0.4,1.9,0.4,2.9c0,1.1,0,2.3,0,3.5v4.1c0,1.3,0.2,2.7,0.5,4H40c-0.2-0.7-0.3-1.5-0.3-2.2
				C39.6,72.1,39.6,71,39.5,69.7z M177.5,399.7h-9.8v7.1h8.2c6.5,0,10-1,10-3.4C185.9,400.9,182.4,399.7,177.5,399.7z M246.6,399.7
				h-7.4v6h8.7c4.2,0,7.2-1.1,7.2-3.1C255.1,399.8,251,399.7,246.6,399.7z M245.8,412.1l-6.7,0v6.6h9.1c5.2,0,9.1-0.6,9.1-3.3
				C257.4,412.3,252.5,412.1,245.8,412.1z M245.8,412.1l-6.7,0v6.6h9.1c5.2,0,9.1-0.6,9.1-3.3C257.4,412.3,252.5,412.1,245.8,412.1z
				 M246.6,399.7h-7.4v6h8.7c4.2,0,7.2-1.1,7.2-3.1C255.1,399.8,251,399.7,246.6,399.7z M177.5,399.7h-9.8v7.1h8.2
				c6.5,0,10-1,10-3.4C185.9,400.9,182.4,399.7,177.5,399.7z M177.5,399.7h-9.8v7.1h8.2c6.5,0,10-1,10-3.4
				C185.9,400.9,182.4,399.7,177.5,399.7z M246.6,399.7h-7.4v6h8.7c4.2,0,7.2-1.1,7.2-3.1C255.1,399.8,251,399.7,246.6,399.7z
				 M245.8,412.1l-6.7,0v6.6h9.1c5.2,0,9.1-0.6,9.1-3.3C257.4,412.3,252.5,412.1,245.8,412.1z M245.8,412.1l-6.7,0v6.6h9.1
				c5.2,0,9.1-0.6,9.1-3.3C257.4,412.3,252.5,412.1,245.8,412.1z M246.6,399.7h-7.4v6h8.7c4.2,0,7.2-1.1,7.2-3.1
				C255.1,399.8,251,399.7,246.6,399.7z M177.5,399.7h-9.8v7.1h8.2c6.5,0,10-1,10-3.4C185.9,400.9,182.4,399.7,177.5,399.7z"/>
		</g>
		<path class="st0" d="M39.7,73.2c0,0.8,0.1,1.5,0.3,2.2h-5.1c-0.3-1.3-0.5-2.6-0.5-4v-4.1c0-1.2,0-2.4,0-3.5c0-1-0.1-1.9-0.4-2.9
			c-0.2-0.8-0.6-1.4-1.1-2c-0.6-0.5-1.4-0.8-2.2-0.8h-1.4l0,17.2h-5.2V34h9.6c1.8,0,3.5,1.1,4.2,2.8c1.2,2.5,1.7,5.3,1.6,8.1
			c0.1,2.3-0.3,4.6-1,6.7c-0.5,1.7-1.9,3-3.5,3.4v0.1c0.3,0.1,0.7,0.2,1.2,0.3c0.6,0.2,1.1,0.5,1.5,1c0.6,0.7,1,1.5,1.3,2.4
			c0.4,1.4,0.6,2.9,0.5,4.4c0,0.7,0,1.6,0,2.8s0,2.4,0.1,3.7C39.6,71,39.6,72.1,39.7,73.2z"/>
		<polygon class="st0" points="55.1,34 61.9,75.4 56.4,75.4 55,66.2 48,66.2 46.5,75.4 41.4,75.4 48.3,34 		"/>
		<polygon class="st0" points="60.3,34 77,34 77,40.9 71.2,40.9 71.2,75.4 66,75.4 66,40.9 60.3,40.9 		"/>
		<rect x="79.4" y="34" class="st0" width="5.2" height="41.5"/>
		<polygon class="st0" points="102.6,34 107.4,34 107.4,75.4 100.6,75.4 93.9,45.1 93.8,45.1 93.8,75.4 88.9,75.4 88.9,34 95.9,34 
			102.5,62.7 102.6,62.7 		"/>
		<path class="st0" d="M127.9,40.9c0.4,1.9,0.5,3.8,0.4,5.8l-5.2,0c0-1,0-1.9-0.1-2.8c0-0.8-0.2-1.5-0.4-2.3
			c-0.2-0.6-0.5-1.1-0.9-1.6c-0.5-0.4-1-0.6-1.6-0.6c-0.8,0-1.5,0.5-1.9,1.2c-0.5,1.1-0.8,2.2-1,3.4c-0.2,1.6-0.3,3.3-0.4,4.9
			c0,1.9-0.1,3.8-0.1,5.8c0,3.2,0.1,5.9,0.2,7.9c0.1,1.5,0.2,3.1,0.6,4.6c0.1,0.8,0.5,1.6,1.1,2.2c0.5,0.4,1.2,0.6,1.8,0.6
			c0.4,0,0.9-0.1,1.3-0.2c0.4-0.2,0.9-0.3,1.2-0.6v-9.2h-2.8v-6.4h8v21c-0.3,0.1-0.8,0.2-1.4,0.4c-0.6,0.2-1.2,0.3-1.9,0.5
			c-0.7,0.1-1.3,0.3-2,0.4c-0.6,0.1-1.2,0.1-1.8,0.1c-1.8,0.1-3.6-0.3-5.2-1.2c-1.4-0.9-2.4-2.2-2.9-3.8c-0.8-2.2-1.2-4.5-1.3-6.8
			c-0.2-2.8-0.3-6.1-0.3-10c0-2.6,0.1-5.2,0.2-7.7c0.1-2.3,0.4-4.6,1-6.8c0.5-1.8,1.3-3.4,2.6-4.8c1.3-1.3,3.1-1.9,5-1.8
			c1.2,0,2.4,0.3,3.4,0.9c1.1,0.6,2,1.5,2.6,2.6C127.1,38,127.6,39.5,127.9,40.9z"/>
		<path class="st0" d="M156,41.3c0.2,1.7,0.4,3.4,0.4,5.1c0,1.3-0.1,2.6-0.2,3.9c-0.1,1.4-0.4,2.7-0.9,4c-0.4,1.2-1.2,2.2-2.1,3.1
			c-1,0.9-2.3,1.3-3.6,1.2h-3.8v16.9h-5.2V34h9.3c1.1,0,2.1,0.3,3,0.8c0.9,0.7,1.6,1.5,2,2.5C155.4,38.6,155.8,39.9,156,41.3z"/>
		<polygon class="st0" points="164.6,69.1 173.3,69.1 173.3,75.4 159.5,75.4 159.5,34 173,34 173,40.4 164.6,40.4 164.6,50.6 
			172.3,50.6 172.3,56.9 164.6,56.9 		"/>
		<polygon class="st0" points="190.3,34 195.1,34 195.1,75.4 188.3,75.4 181.6,45.1 181.5,45.1 181.5,75.4 176.7,75.4 176.7,34 
			183.7,34 190.2,62.7 190.3,62.7 		"/>
		<path class="st0" d="M216,45.8c0.2,2.5,0.3,5.4,0.3,8.7v3.8c0,1.4-0.1,2.9-0.2,4.5c-0.1,1.6-0.3,3.1-0.6,4.6
			c-0.3,1.4-0.7,2.8-1.4,4.1c-0.6,1.1-1.4,2.1-2.4,2.9c-1.1,0.8-2.4,1.2-3.7,1.1h-8.4V34h8.6c1.5-0.1,3,0.4,4.1,1.4
			c1.2,1.1,2,2.5,2.5,4C215.5,41.5,215.9,43.6,216,45.8z"/>
		<rect x="220.5" y="34" class="st0" width="5.2" height="41.5"/>
		<polygon class="st0" points="243.7,34 248.5,34 248.5,75.4 241.7,75.4 235,45.1 234.9,45.1 234.9,75.4 230.1,75.4 230.1,34 
			237.1,34 243.6,62.7 243.7,62.7 		"/>
		<path class="st0" d="M258,49c0,1.9,0,3.8,0,5.8c0,3.2,0,5.9,0.2,7.9c0,1.6,0.2,3.1,0.6,4.6c0.1,0.8,0.5,1.6,1.1,2.2
			c0.5,0.4,1.2,0.6,1.8,0.6c0.5,0,0.9-0.1,1.3-0.2c0.4-0.2,0.8-0.3,1.2-0.6v-9.2h-2.8v-6.4h8v21c-0.4,0.1-0.8,0.2-1.4,0.4
			c-0.6,0.2-1.2,0.3-1.9,0.5c-0.7,0.1-1.3,0.3-2,0.4c-0.6,0.1-1.2,0.1-1.8,0.1c-1.8,0.1-3.6-0.3-5.2-1.2c-1.4-0.9-2.4-2.2-2.9-3.8
			c-0.8-2.2-1.2-4.5-1.3-6.8c-0.2-2.8-0.3-6.1-0.3-10c0-2.6,0-5.2,0.2-7.7c0.1-2.3,0.4-4.6,1-6.8c0.5-1.8,1.4-3.4,2.6-4.8
			c2.3-2,5.7-2.4,8.4-0.9c1.1,0.6,2,1.5,2.6,2.6c0.8,1.3,1.3,2.7,1.5,4.2c0.3,1.9,0.5,3.8,0.4,5.8l-5.1,0c0-1,0-1.9-0.1-2.8
			c0-0.8-0.2-1.5-0.4-2.3c-0.2-0.6-0.5-1.1-1-1.6c-0.5-0.4-1-0.6-1.6-0.6c-0.8,0-1.5,0.5-1.9,1.2c-0.5,1.1-0.8,2.2-1,3.4
			C258.1,45.8,258,47.4,258,49z"/>
		<path class="st0" d="M171.9,317c-3-3.8-10.4-26.4-15.4-45.1c-4.3-16.1-13-25.5-25.2-28.7c7.6-8.9,12-22.7,6.1-44.4
			c-8.2-30.3-29.1-45-54.4-38.2l-57.6,15.3l-1.2,0.3l47.7,176.5l38.5-10.3c0,0-15.6-57.8-18.4-68L94,274c5.9-1.5,10.2-1.5,13.1,0.2
			c5.1,2.9,7.5,11.8,10.2,22l2.1,8.1c2.5,9.8,5.2,20,11.8,28.6l2.6,3.4l44.1-11.7L171.9,317z M93.4,240.4L93.4,240.4
			c0,0-4.9,1.3-9.8,2.6c-2.9-10.6-9.5-35.1-12.4-45.8c4.8-1.2,9.8-2.6,9.8-2.6c4.7-1.2,12.5-3.3,18.2,17.8
			C100.3,216.6,105.3,237.3,93.4,240.4z"/>
		<path class="st0" d="M265.5,174.4c-12.3-45.7-39.8-48.7-60.8-43.1L152.8,145l-6.2,1.6l47.7,176.6l39.4-10.5
			c0,0-15.4-56.7-18.1-66.9c6.7-1.8,16.9-4.5,16.9-4.5C263.3,233.3,275,209.4,265.5,174.4z M220.8,209.6c0,0-7.6,2-14,3.7
			c-2.8-10.4-9.5-35.3-12.3-45.7c5.7-1.5,11.9-3.2,11.9-3.2c6.8-1.8,14.6-1.8,20.7,20.9C230,196.2,227,208,220.8,209.6z"/>
		<g id="Group_475" transform="translate(10.494 60.641)">
			<path id="Path_1189" class="st1" d="M161.4,256.4c-3-3.8-10.4-26.4-15.4-45.1c-4.3-16.1-13-25.5-25.2-28.7
				c7.6-8.9,12-22.7,6.1-44.4c-8.2-30.3-29.1-45-54.4-38.2l-57.6,15.3l-1.2,0.3l47.7,176.5l38.5-10.3c0,0-15.6-57.8-18.4-68l1.9-0.5
				c5.9-1.5,10.2-1.5,13.1,0.2c5.1,2.9,7.5,11.8,10.2,22l2.1,8.1c2.5,9.8,5.2,20,11.8,28.6l2.6,3.4l44.1-11.7L161.4,256.4z
				 M82.9,179.8L82.9,179.8c0,0-4.9,1.3-9.8,2.6c-2.9-10.6-9.5-35.1-12.4-45.8c4.8-1.2,9.8-2.6,9.8-2.6c4.7-1.2,12.5-3.3,18.2,17.8
				C89.8,156,94.8,176.6,82.9,179.8z"/>
			<path id="Path_1190" class="st1" d="M255,113.8c-12.3-45.7-39.8-48.7-60.8-43.1l-51.9,13.8l-6.2,1.6l47.7,176.6l39.4-10.5
				c0,0-15.4-56.7-18.1-66.9c6.7-1.8,16.9-4.5,16.9-4.5C252.8,172.6,264.5,148.8,255,113.8z M210.3,149c0,0-7.6,2-14,3.7
				c-2.8-10.4-9.5-35.3-12.3-45.7c5.7-1.5,11.9-3.2,11.9-3.2c6.8-1.8,14.6-1.8,20.7,20.9C219.5,135.6,216.5,147.3,210.3,149z"/>
		</g>
		<g id="Group_476" transform="translate(10.465 14.724)">
			<path id="Path_1191" class="st1" d="M29.2,58.5c-0.1-1.1-0.1-2.2-0.2-3.5c0-1.3-0.1-2.5-0.1-3.7s0-2.1,0-2.8c0-1.5-0.1-3-0.5-4.4
				c-0.3-0.9-0.7-1.7-1.3-2.4c-0.4-0.5-0.9-0.8-1.5-1c-0.5-0.2-0.9-0.3-1.2-0.3v-0.1c1.7-0.5,3-1.8,3.5-3.4c0.8-2.2,1.1-4.4,1-6.7
				c0.2-2.8-0.4-5.6-1.6-8.1c-0.8-1.7-2.4-2.7-4.2-2.8h-9.6v41.5h5.2l0-17.2h1.4c0.8,0,1.6,0.2,2.2,0.8c0.5,0.5,0.9,1.2,1.1,2
				c0.2,1,0.4,1.9,0.4,2.9c0,1.1,0,2.3,0,3.5v4.1c0,1.3,0.2,2.7,0.5,4h5.1C29.4,60,29.3,59.2,29.2,58.5z M23.8,31.1
				c0,0.7,0,1.3-0.1,2.1c-0.1,0.7-0.2,1.3-0.4,2c-0.2,0.5-0.5,1-0.8,1.5c-0.3,0.4-0.8,0.6-1.3,0.6h-2.3l0-11.5h2.3
				c0.8,0,1.6,0.5,1.9,1.2C23.7,28.2,23.9,29.6,23.8,31.1z"/>
			<path id="Path_1192" class="st1" d="M44.7,19.3h-6.8L31,60.7h5.1l1.4-9.2h7.1l1.4,9.2h5.5L44.7,19.3z M38.5,45.2l2.4-17.9H41
				l2.5,17.9H38.5z"/>
			<polygon class="st1" points="66.5,19.3 66.5,26.1 60.8,26.1 60.8,60.7 55.6,60.7 55.6,26.1 49.8,26.1 49.8,19.2 			"/>
			<rect x="68.9" y="19.3" class="st1" width="5.2" height="41.5"/>
			<polygon class="st1" points="97,19.3 97,60.7 90.2,60.7 83.4,30.4 83.3,30.4 83.3,60.7 78.5,60.7 78.5,19.3 85.5,19.3 92.1,48 
				92.1,48 92.1,19.3 			"/>
			<path class="st1" d="M106.4,34.3c0,1.9-0.1,3.8-0.1,5.8c0,3.2,0.1,5.9,0.2,7.9c0.1,1.5,0.2,3.1,0.6,4.6c0.1,0.8,0.5,1.6,1.1,2.2
				c0.5,0.4,1.2,0.6,1.8,0.6c0.4,0,0.9-0.1,1.3-0.2c0.4-0.2,0.9-0.3,1.2-0.6v-9.2h-2.8V39h8v21c-0.3,0.1-0.8,0.2-1.4,0.4
				c-0.6,0.2-1.2,0.3-1.9,0.5c-0.7,0.1-1.3,0.3-2,0.4c-0.6,0.1-1.2,0.1-1.8,0.1c-1.8,0.1-3.6-0.3-5.2-1.2c-1.4-0.9-2.4-2.2-2.9-3.8
				c-0.8-2.2-1.2-4.5-1.3-6.8c-0.2-2.8-0.3-6.1-0.3-10c0-2.6,0.1-5.2,0.2-7.7c0.1-2.3,0.4-4.6,1-6.8c0.5-1.8,1.3-3.4,2.6-4.8
				c1.3-1.3,3.1-1.9,5-1.8c1.2,0,2.4,0.3,3.4,0.9c1.1,0.6,2,1.5,2.6,2.6c0.8,1.3,1.3,2.7,1.5,4.2c0.4,1.9,0.5,3.8,0.4,5.8l-5.2,0
				c0-1,0-1.9-0.1-2.8c0-0.8-0.2-1.5-0.4-2.3c-0.2-0.6-0.5-1.1-0.9-1.6c-0.5-0.4-1-0.6-1.6-0.6c-0.8,0-1.5,0.5-1.9,1.2
				c-0.5,1.1-0.8,2.2-1,3.4C106.5,31,106.4,32.7,106.4,34.3z"/>
			<path id="Path_1197" class="st1" d="M145.5,26.6c-0.2-1.4-0.6-2.7-1.2-3.9c-0.5-1-1.1-1.9-2-2.5c-0.9-0.6-2-0.9-3-0.8H130v41.5
				h5.2V43.8h3.8c1.3,0.1,2.6-0.4,3.6-1.2c0.9-0.8,1.7-1.9,2.1-3.1c0.5-1.3,0.8-2.6,0.9-4c0.2-1.3,0.2-2.6,0.2-3.9
				C145.9,29.9,145.8,28.2,145.5,26.6z M140.4,33.9c-0.1,0.6-0.3,1.2-0.5,1.8c-0.2,0.5-0.5,0.9-0.8,1.3c-0.3,0.3-0.7,0.5-1.1,0.5
				h-2.9V25.6h2.6c0.5,0,1,0.1,1.4,0.5c0.4,0.4,0.7,0.8,0.9,1.3c0.2,0.7,0.4,1.3,0.5,2c0.1,0.8,0.1,1.6,0.1,2.4
				C140.6,32.6,140.6,33.3,140.4,33.9z"/>
			<polygon class="st1" points="162.8,54.3 162.8,60.7 149,60.7 149,19.3 162.5,19.3 162.5,25.6 154.2,25.6 154.2,35.8 161.9,35.8 
				161.9,42.2 154.2,42.2 154.2,54.3 			"/>
			<polygon class="st1" points="184.7,19.3 184.7,60.7 177.9,60.7 171.1,30.4 171,30.4 171,60.7 166.2,60.7 166.2,19.3 173.2,19.3 
				179.8,48 179.9,48 179.9,19.3 			"/>
			<path id="Path_1200" class="st1" d="M205.5,31.1c-0.1-2.2-0.5-4.4-1.2-6.5c-0.4-1.5-1.3-2.9-2.5-4c-1.2-1-2.6-1.4-4.1-1.4h-8.6
				v41.5h8.4c1.3,0.1,2.6-0.3,3.7-1.1c1-0.8,1.8-1.8,2.4-2.9c0.7-1.3,1.1-2.7,1.4-4.1c0.3-1.5,0.5-3.1,0.6-4.6
				c0.1-1.6,0.2-3.1,0.2-4.5v-3.8C205.9,36.5,205.8,33.7,205.5,31.1z M200.4,46.6c-0.1,1.5-0.2,3-0.6,4.5c-0.2,0.9-0.5,1.8-1.1,2.5
				c-0.5,0.5-1.2,0.8-1.9,0.8h-2.5V25.6h2.7c0.9,0,1.7,0.4,2.1,1.2c0.6,1,0.9,2,1.1,3.2c0.3,1.5,0.4,3,0.4,4.6c0,1.7,0,3.5,0,5.5
				C200.6,42.6,200.5,44.8,200.4,46.6z"/>
			<rect x="210" y="19.3" class="st1" width="5.2" height="41.5"/>
			<polygon class="st1" points="238.1,19.3 238.1,60.7 231.2,60.7 224.5,30.4 224.4,30.4 224.4,60.7 219.6,60.7 219.6,19.3 
				226.6,19.3 233.2,48 233.2,48 233.2,19.3 			"/>
			<path class="st1" d="M247.5,34.3c0,1.9,0,3.8,0,5.8c0,3.2,0,5.9,0.2,7.9c0,1.6,0.2,3.1,0.6,4.6c0.1,0.8,0.5,1.6,1.1,2.2
				c0.5,0.4,1.2,0.6,1.8,0.6c0.5,0,0.9-0.1,1.3-0.2c0.4-0.2,0.8-0.3,1.2-0.6v-9.2h-2.8V39h8v21c-0.4,0.1-0.8,0.2-1.4,0.4
				c-0.6,0.2-1.2,0.3-1.9,0.5c-0.7,0.1-1.3,0.3-2,0.4c-0.6,0.1-1.2,0.1-1.8,0.1c-1.8,0.1-3.6-0.3-5.2-1.2c-1.4-0.9-2.4-2.2-2.9-3.8
				c-0.8-2.2-1.2-4.5-1.3-6.8c-0.2-2.8-0.3-6.1-0.3-10c0-2.6,0-5.2,0.2-7.7c0.1-2.3,0.4-4.6,1-6.8c0.5-1.8,1.4-3.4,2.6-4.8
				c2.3-2,5.7-2.4,8.4-0.9c1.1,0.6,2,1.5,2.6,2.6c0.8,1.3,1.3,2.7,1.5,4.2c0.3,1.9,0.5,3.8,0.4,5.8l-5.1,0c0-1,0-1.9-0.1-2.8
				c0-0.8-0.2-1.5-0.4-2.3c-0.2-0.6-0.5-1.1-1-1.6c-0.5-0.4-1-0.6-1.6-0.6c-0.8,0-1.5,0.5-1.9,1.2c-0.5,1.1-0.8,2.2-1,3.4
				C247.6,31,247.5,32.7,247.5,34.3z"/>
		</g>
	</g>
</g>
</svg>
