<?xml version="1.0" encoding="utf-8"?>
<!-- Generator: Adobe Illustrator 26.1.0, SVG Export Plug-In . SVG Version: 6.00 Build 0)  -->
<svg version="1.1" id="Layer_1" xmlns="http://www.w3.org/2000/svg" xmlns:xlink="http://www.w3.org/1999/xlink" x="0px" y="0px"
	 viewBox="0 0 113 206" style="enable-background:new 0 0 113 206;" xml:space="preserve">
<g>
	<polygon points="113.3,103 101.9,123.6 99.7,119.7 90.5,103 79.7,83.6 79.7,81.2 79,82.4 67.6,61.7 59.7,47.4 56.2,41.1 44.7,61.7 
		39.7,70.8 33.3,82.4 21.9,103 33.3,123.6 39.7,135.2 44.7,144.3 56.2,164.9 59.7,158.6 67.6,144.3 59.7,130 56.2,123.6 44.7,103 
		56.2,82.4 59.7,88.7 67.6,103 79,123.6 79.7,124.8 90.5,144.3 79.7,163.7 79,164.9 67.6,185.6 59.7,199.9 56.2,206.2 44.7,185.6 
		39.7,176.5 33.3,164.9 21.9,144.3 21.9,144.3 19.7,140.3 10.4,123.6 -0.3,104.2 -0.3,101.8 10.4,82.4 19.7,65.7 21.9,61.7 
		33.3,41.1 39.7,29.5 44.7,20.4 56.2,-0.2 59.7,6.1 67.6,20.4 79,41.1 79.7,42.3 90.5,61.7 99.7,78.4 101.9,82.4 	"/>
</g>
</svg>
