<?xml version="1.0" encoding="utf-8"?>
<!-- Generator: Adobe Illustrator 26.0.3, SVG Export Plug-In . SVG Version: 6.00 Build 0)  -->
<svg version="1.1" id="Layer_1" xmlns="http://www.w3.org/2000/svg" xmlns:xlink="http://www.w3.org/1999/xlink" x="0px" y="0px"
	 viewBox="0 0 300 300" style="enable-background:new 0 0 300 300;" xml:space="preserve">
<g>
	<path d="M149.7,0C71.7,0,7.7,60.8,1.6,138l79.7,33.2c6.7-4.7,14.9-7.4,23.7-7.4c0.8,0,1.6,0,2.3,0.1l35.4-51.8v-0.7
		c0-31.2,25.1-56.6,56.1-56.6s56.1,25.4,56.1,56.6s-25.1,56.6-56.1,56.6c-0.4,0-0.8,0-1.3,0L147,204.3c0,0.7,0.1,1.3,0.1,2
		c0,23.4-18.9,42.5-42.1,42.5c-20.4,0-37.4-14.7-41.3-34.1l-57-23.8c17.6,63,75,109.1,143,109.1c82.1,0,148.6-67.2,148.6-150
		C298.4,67.2,231.8,0,149.7,0z M94.8,227.6L76.5,220c3.2,6.8,8.8,12.5,16.3,15.6c16.1,6.8,34.6-0.9,41.3-17.2
		c3.2-7.9,3.3-16.5,0.1-24.4c-3.2-7.9-9.3-14-17-17.3c-7.7-3.2-16-3.1-23.3-0.4l18.9,7.9c11.9,5,17.5,18.7,12.5,30.7
		C120.2,226.9,106.6,232.6,94.8,227.6z M236.1,111.3c0-20.8-16.8-37.7-37.3-37.7c-20.6,0-37.4,16.9-37.4,37.7s16.8,37.7,37.4,37.7
		C219.4,149,236.1,132.1,236.1,111.3z M170.8,111.3c0-15.6,12.6-28.3,28.1-28.3c15.5,0,28.1,12.7,28.1,28.3s-12.6,28.3-28.1,28.3
		C183.4,139.6,170.8,126.9,170.8,111.3z"/>
</g>
</svg>
